<svg width="16" height="16" fill="none" xmlns="http://www.w3.org/2000/svg"><path opacity=".7" fill-rule="evenodd" clip-rule="evenodd" d="M3.203 6.656C5.383 2.22 6.516.536 10.079.606c1.27.025.964-.868 1.932-.53.967.34.137.836 1.127 1.603 2.775 2.153 2.52 4.146 1.232 8.893-.543 2 1.307 2.098.575 4.036-.534 1.414-4.473 2.005-8.63.547-4.157-1.457-6.78-4.35-6.246-5.763.732-1.94 2.214-.869 3.134-2.736zm3.563 7.305c3.712 1.302 6.763.537 6.892.196.222-.587-1.198-2.545-5.442-4.033-4.245-1.488-6.613-.937-6.86-.28-.147.386 1.697 2.816 5.41 4.117zm1.192-3.158c1.94.68 3.29 1.46 4.162 2.16-.613.528-1.764.657-2.912.254-1.46-.512-2.357-1.687-2.002-2.626.003-.011.01-.02.015-.032.239.075.484.155.737.244z" fill="#fff"/></svg>