<svg width="45" height="45" viewBox="0 0 45 45" fill="none" xmlns="http://www.w3.org/2000/svg">
<circle cx="22.5" cy="22.5" r="21.5" stroke="white" stroke-opacity="0.15" stroke-width="2"/>
<path d="M14.8228 19.8415H14.9724C16.3641 19.8415 17.4691 19.6691 18.2875 19.3244C18.4703 19.6124 18.5617 19.9244 18.5617 20.2604C18.5617 20.5004 18.4766 20.6727 18.3062 20.7775C18.1359 20.8822 17.7911 20.9345 17.2718 20.9345L12.1122 20.9411C12.0374 20.7491 12 20.5636 12 20.3847C12 20.2669 12.0312 20.1818 12.0935 20.1295C12.1558 20.0727 12.2472 20.0444 12.3677 20.0444H12.8226C12.8475 19.4815 12.8599 18.0175 12.8599 15.6524C12.8599 14.3738 12.8454 13.4553 12.8163 12.8967H12.1122C12.0374 12.7047 12 12.5215 12 12.3469C12 12.2247 12.0312 12.1375 12.0935 12.0851C12.1558 12.0284 12.2472 12 12.3677 12H15.6516C15.7223 12.1615 15.7576 12.3229 15.7576 12.4844C15.7576 12.6415 15.7306 12.7505 15.6766 12.8116C15.6226 12.8684 15.5374 12.8967 15.4211 12.8967H14.8166C14.7958 13.4553 14.7855 14.376 14.7855 15.6589C14.7855 18.0196 14.7979 19.4138 14.8228 19.8415Z" fill="white"/>
<path d="M19.5588 12H22.9674C23.038 12.1615 23.0733 12.3229 23.0733 12.4844C23.0733 12.6415 23.0463 12.7505 22.9923 12.8116C22.9383 12.8684 22.851 12.8967 22.7306 12.8967H22.1261C22.1053 13.4553 22.097 14.376 22.1012 15.6589C22.1012 18.0196 22.1116 19.4793 22.1323 20.0378H22.9674C23.038 20.1949 23.0733 20.3564 23.0733 20.5222C23.0733 20.6749 23.0463 20.7818 22.9923 20.8429C22.9383 20.904 22.851 20.9345 22.7306 20.9345H19.3033C19.2285 20.7425 19.1911 20.5571 19.1911 20.3782C19.1911 20.2604 19.2223 20.1753 19.2846 20.1229C19.3469 20.0662 19.4383 20.0378 19.5588 20.0378H20.1383C20.159 19.4793 20.1694 18.0175 20.1694 15.6524C20.1653 14.3738 20.1528 13.4553 20.132 12.8967H19.3033C19.2285 12.7047 19.1911 12.5215 19.1911 12.3469C19.1911 12.2247 19.2223 12.1375 19.2846 12.0851C19.3469 12.0284 19.4383 12 19.5588 12Z" fill="white"/>
<path d="M24.7059 12H27.3792C27.9359 13.1215 28.4718 14.16 28.9869 15.1156C29.5021 16.0713 30.0297 17.256 30.5697 18.6698V15.6524C30.5697 14.3738 30.5573 13.4553 30.5323 12.8967H29.8282C29.7576 12.7047 29.7223 12.5215 29.7223 12.3469C29.7223 12.2247 29.7534 12.1375 29.8157 12.0851C29.878 12.0284 29.9694 12 30.0899 12H32.8941C32.9647 12.1615 33 12.3229 33 12.4844C33 12.6415 32.973 12.7505 32.919 12.8116C32.865 12.8684 32.7777 12.8967 32.6573 12.8967H32.1151C32.0985 13.4553 32.0902 14.376 32.0902 15.6589V20.0509C32.0902 20.4655 32.0445 20.7273 31.9531 20.8364C31.8617 20.9455 31.6208 21 31.2303 21C30.4534 21 30.0131 20.9695 29.9092 20.9084C29.8053 20.8473 29.3899 20.1862 28.6629 18.9251C27.9359 17.664 27.265 16.2545 26.6501 14.6967C26.6501 17.6989 26.6605 19.4793 26.6813 20.0378H27.3294C27.4 20.1949 27.4353 20.3564 27.4353 20.5222C27.4353 20.6749 27.4083 20.7818 27.3543 20.8429C27.3003 20.904 27.2151 20.9345 27.0988 20.9345H24.3258C24.251 20.7425 24.2136 20.5571 24.2136 20.3782C24.2136 20.2604 24.2448 20.1753 24.3071 20.1229C24.3694 20.0662 24.4608 20.0378 24.5813 20.0378H25.0985C25.1234 19.4793 25.1359 18.0175 25.1359 15.6524C25.1318 14.3738 25.1172 13.4553 25.0923 12.8967H24.4504C24.3757 12.7047 24.3383 12.5215 24.3383 12.3469C24.3383 12.2247 24.3694 12.1375 24.4318 12.0851C24.4941 12.0284 24.5855 12 24.7059 12Z" fill="white"/>
<path d="M18.7055 33.3089C18.7055 32.3172 18.695 31.7013 18.6739 31.4612C18.6529 31.2159 18.6213 31.041 18.5793 30.9367C18.5424 30.8323 18.4793 30.7592 18.3899 30.7174C18.3058 30.6705 18.198 30.647 18.0665 30.647C17.9718 30.4695 17.9245 30.2947 17.9245 30.1224C17.9245 29.9189 17.9692 29.7753 18.0586 29.6918C18.1533 29.6083 18.3137 29.5665 18.5398 29.5665H20.2596C20.6119 29.5665 20.8486 29.624 20.9696 29.7388C21.0905 29.8536 21.151 30.0859 21.151 30.4356V32.0719C21.151 32.7609 21.1773 33.6586 21.2299 34.7651C20.9406 34.8173 20.5909 34.8434 20.1807 34.8434C20.0702 34.8434 19.8678 34.6607 19.5733 34.2954C18.6056 34.7651 17.6142 35 16.5992 35C14.9741 35 13.8013 34.6059 13.0808 33.8178C12.3603 33.0297 12 31.7561 12 29.9972C12 27.9616 12.476 26.4531 13.4279 25.4719C14.385 24.4906 15.7656 24 17.5695 24C18.7002 24 19.4786 24.0809 19.9046 24.2427C20.3306 24.3993 20.5436 24.6864 20.5436 25.1039C20.5436 25.5058 20.3805 25.9103 20.0545 26.3174C19.0079 25.7746 17.9902 25.5032 17.0015 25.5032C16.2705 25.5032 15.7051 25.7616 15.3054 26.2783C14.911 26.795 14.7137 27.7711 14.7137 29.2064C14.7137 30.8871 14.9083 32.0223 15.2975 32.6121C15.6867 33.2019 16.3625 33.4968 17.3249 33.4968C17.7878 33.4968 18.2479 33.4342 18.7055 33.3089Z" fill="#FEED7D"/>
<path d="M22.9023 29.9972C22.9023 27.9616 23.3783 26.4531 24.3302 25.4719C25.2874 24.4906 26.5917 24 28.243 24C29.7998 24 30.9805 24.3601 31.7851 25.0804C32.595 25.7955 33 27.103 33 29.0028C33 31.0384 32.5214 32.5469 31.5642 33.5281C30.6123 34.5094 29.287 35 27.5883 35C26.0736 35 24.914 34.6425 24.1093 33.9274C23.3047 33.2071 22.9023 31.897 22.9023 29.9972ZM25.6161 29.2377C25.6161 30.9132 25.8291 32.0432 26.2551 32.6278C26.6811 33.2071 27.2754 33.4968 28.0379 33.4968C28.8373 33.4968 29.4106 33.2149 29.7577 32.6512C30.1048 32.0823 30.2784 31.1193 30.2784 29.7623C30.2784 28.0399 30.0654 26.8994 29.6394 26.3409C29.2186 25.7824 28.6243 25.5032 27.8565 25.5032C27.0571 25.5032 26.4838 25.7877 26.1367 26.3566C25.7896 26.9203 25.6161 27.8807 25.6161 29.2377Z" fill="#FEED7D"/>
</svg>
