<svg xmlns="http://www.w3.org/2000/svg">
  <symbol id="i-teacher" viewBox="0 0 36 36">
    <path d="M24.8799 6.64905C22.4256 6.64905 20.4359 8.78717 20.4359 11.4245C20.4359 14.0619 22.4256 16.2 24.8799 16.2C27.3342 16.2 29.3239 14.0619 29.3239 11.4245C29.3239 8.78717 27.3342 6.64905 24.8799 6.64905Z"/>
    <path d="M24.0219 22.6401C24.0275 22.6411 24.0303 22.6421 24.0312 22.6421C24.034 22.6252 24.0349 22.6083 24.0368 22.5924C24.0368 22.5924 24.0358 22.5924 24.034 22.5924L24.0219 22.6401Z"/>
    <path d="M0.681204 0.00198895L0.703415 0.0039779L0.725626 0.0079558L0.747837 0.0119337L0.770047 0.0169061L0.792258 0.0228729L0.813544 0.0298343L0.834829 0.0377901L0.856114 0.0467403L0.877399 0.0566851L0.897759 0.0666298L0.918119 0.0785635L0.937554 0.0904972L0.956988 0.103425L0.976423 0.117348L0.994932 0.132265L1.01252 0.147182L1.0301 0.164088L1.04676 0.180994L1.06342 0.198895L1.07915 0.21779L1.09488 0.23768L1.10876 0.257569L1.12264 0.279447L1.1356 0.301326L7.07606 10.624L7.1501 10.6001L7.22506 10.5792L7.30095 10.5603L7.37683 10.5434L7.45272 10.5305L7.52953 10.5196L7.60635 10.5106L7.68408 10.5056L7.7609 10.5027H7.83771L7.91545 10.5056L7.99133 10.5106L8.06814 10.5196L8.14403 10.5305L8.21992 10.5454L8.29488 10.5623L8.36892 10.5832L8.44295 10.6061L8.51606 10.6329L8.58732 10.6628L8.65858 10.6956L8.72799 10.7314L8.7974 10.7712L8.86403 10.8129L8.93066 10.8597L8.99452 10.9084L9.05745 10.9611L9.11946 11.0168L9.17868 11.0765L9.23699 11.1391L9.29251 11.2048L9.34712 11.2754L9.39894 11.349L9.44892 11.4255L9.49611 11.5061L9.54146 11.5906L9.58496 11.6781L9.62475 11.7696L9.66269 11.8661L9.69786 11.9645L9.74413 12.1018L9.79133 12.239L9.83946 12.3752L9.8885 12.5115L9.93848 12.6477L9.98938 12.783L10.0412 12.9172L10.094 13.0515L10.1476 13.1857L10.2022 13.319L10.2578 13.4523L10.3142 13.5855L10.3707 13.7178L10.429 13.8491L10.4873 13.9813L10.5465 14.1116L10.6076 14.2429L10.6687 14.3731L10.7297 14.5024L10.7927 14.6317L10.8565 14.761L10.9204 14.8893L10.9852 15.0176L11.0509 15.1459L11.1166 15.2731L11.1841 15.4004L11.2517 15.5267L11.3202 15.653L11.3896 15.7783L11.459 15.9036L11.5293 16.0289L11.6006 16.1533L11.6718 16.2776L11.744 16.4019L11.8171 16.5252L11.8903 16.6485L11.9643 16.7708L12.0392 16.8931L12.1142 17.0145L12.1901 17.1358L12.34 17.1249L12.489 17.1129L12.638 17.101L12.787 17.0891L12.9369 17.0771L13.0859 17.0662L13.2349 17.0543L13.3839 17.0423L13.5339 17.0304L13.6828 17.0185L13.8318 17.0075L13.9808 16.9956L14.1308 16.9836L14.2798 16.9717L14.4288 16.9598L14.5787 16.9488L14.7277 16.9369L14.8767 16.925L15.3246 16.8902L15.6235 16.8663L15.7725 16.8544L15.9215 16.8424L16.0705 16.8315L16.2204 16.8196L16.3694 16.8076L16.5184 16.7957L16.6674 16.7838L16.8173 16.7728L16.9663 16.7609L17.1153 16.7489L17.2653 16.737L17.4143 16.7251L17.5633 16.7141L17.7123 16.7022L17.8622 16.6903L18.0112 16.6783L18.1602 16.6664L18.3443 16.6197L18.5211 16.5779L18.6914 16.5421L18.8543 16.5113L19.0107 16.4864L19.1606 16.4655L19.3031 16.4486L19.4401 16.4367L19.5706 16.4287L19.6955 16.4248H19.813L19.9259 16.4277L20.0333 16.4337L20.1342 16.4427L20.2295 16.4536L20.3202 16.4675L20.4053 16.4844L20.4858 16.5023L20.5608 16.5222L20.6311 16.5441L20.6968 16.566L20.7579 16.5898L20.8144 16.6147L20.8671 16.6396L20.9152 16.6644L20.9587 16.6903L20.9995 16.7151L21.0355 16.74L21.0689 16.7639L21.0976 16.7877L21.1235 16.8096L21.1457 16.8305L21.1651 16.8504L21.1818 16.8673L21.1957 16.8832L21.2058 16.8961L21.2142 16.9071L21.2197 16.915L21.2234 16.92L21.2243 16.921L21.2438 16.928L21.2669 16.9548L21.2956 17.0015L21.328 17.0672L21.365 17.1497L21.4057 17.2482L21.4492 17.3625L21.4964 17.4898L21.5464 17.631L21.6001 17.7842L21.6547 17.9483L21.712 18.1223L21.7713 18.3053L21.8324 18.4952L21.8934 18.6922L21.9564 18.895L22.0202 19.1019L22.0841 19.3117L22.1489 19.5235L22.2127 19.7373L22.2766 19.9512L22.3395 20.164L22.4015 20.3748L22.4626 20.5817L22.5218 20.7855L22.5792 20.9834L22.6338 21.1754L22.6875 21.3593L22.7374 21.5344L22.7846 21.7004L22.8291 21.8556L22.8698 21.9998L22.9068 22.1301L22.9401 22.2474L22.9688 22.3488L22.9929 22.4344L23.0123 22.503L23.0262 22.5537L23.0345 22.5845L23.0373 22.5945L23.0364 17.8777L22.9457 17.8638L23.0428 17.098L24.8169 17.3635L24.717 18.1293L24.6309 18.1164L23.5398 22.5915L23.0577 22.5189L23.5278 22.6392L23.5213 22.6661L23.538 22.6422L26.542 17.8339H26.5438L26.5485 17.8329L26.5568 17.8309L26.5688 17.828L26.5836 17.825L26.6021 17.821L26.6243 17.818L26.6502 17.814L26.6789 17.8101L26.7113 17.8061L26.7474 17.8031L26.7872 17.8001L26.8307 17.7971L26.8779 17.7951L26.9288 17.7941L26.9825 17.7931L27.0408 17.7941L27.1028 17.7961L27.1694 17.7991L27.2388 17.8031L27.3119 17.8091L27.3897 17.817L27.4711 17.826L27.5563 17.8369L27.646 17.8498L27.7395 17.8647L27.8367 17.8827L27.9385 17.9015L28.044 17.9244L28.1541 17.9483L28.2679 17.9761L28.3864 18.006L28.5086 18.0398L28.6353 18.0756L28.7668 18.1154L28.9019 18.1581L29.0416 18.2039L29.1851 18.2536L29.3341 18.3073L29.4868 18.365L29.4775 18.4764L29.5016 18.4833L29.5256 18.4913L29.5497 18.4992L29.5737 18.5072L29.5978 18.5151L29.6219 18.5241L29.6459 18.533L29.67 18.543L29.6941 18.5529L29.7181 18.5629L29.7422 18.5738L29.7662 18.5848L29.7903 18.5967L29.8144 18.6086L29.8375 18.6206L29.8616 18.6335L29.8856 18.6464L29.9088 18.6603L29.9328 18.6743L29.9569 18.6882L29.98 18.7031L30.0032 18.718L30.0272 18.7339L30.0504 18.7498L30.0735 18.7667L30.0976 18.7836L30.1207 18.8015L30.1438 18.8194L30.167 18.8373L30.1901 18.8562L30.2123 18.8761L30.2354 18.896L30.2586 18.9159L30.2808 18.9368L30.3039 18.9577L30.3261 18.9796L30.3493 19.0024L30.3715 19.0253L30.3937 19.0482L30.4159 19.072L30.5381 19.2083L30.6676 19.3604L30.8055 19.5285L30.9499 19.7105L31.1017 19.9054L31.2581 20.1133L31.4209 20.332L31.5884 20.5608L31.7597 20.7994L31.9346 21.0461L32.1123 21.2997L32.2927 21.5592L32.4741 21.8238L32.6573 22.0923L32.8415 22.3638L33.0257 22.6372L33.2089 22.9117L33.3912 23.1862L33.5708 23.4597L33.7494 23.7302L33.9243 23.9987L34.0955 24.2622L34.263 24.5208L34.4259 24.7724L34.5832 25.018L34.735 25.2537L34.8803 25.4814L35.0182 25.6982L35.1487 25.9031L35.2708 26.096L35.3837 26.276L35.4874 26.4401L35.5818 26.5903L35.6651 26.7225L35.7372 26.8379L35.7974 26.9344L35.8455 27.0109L35.8798 27.0676L35.902 27.1024L35.9085 27.1134L35.9029 27.1243L35.8844 27.1541L35.8539 27.2029L35.8131 27.2705L35.7613 27.355L35.6993 27.4565L35.628 27.5728L35.5475 27.7051L35.4596 27.8503L35.3624 28.0094L35.2579 28.1814L35.1468 28.3644L35.0293 28.5583L34.9062 28.7622L34.7775 28.975L34.6443 29.1958L34.5064 29.4245L34.3648 29.6592L34.2195 29.8999L34.0724 30.1465L33.9224 30.3961L33.7716 30.6497L33.6189 30.9053L33.4653 31.1629L33.3116 31.4204L33.1589 31.679L33.0072 31.9366L32.8572 32.1922L32.7082 32.4448L32.562 32.6954L32.4195 32.941L32.2807 33.1817L32.1446 33.4164L32.0142 33.6451L31.8892 33.8659L31.7689 34.0777L31.6551 34.2815L31.5487 34.4745L31.4487 34.6575L31.3571 34.8285L31.284 34.9558L31.2062 35.0751L31.1248 35.1865L31.0378 35.2889L30.948 35.3844L30.8536 35.4719L30.7555 35.5515L30.6556 35.6241L30.551 35.6887L30.4455 35.7464L30.3363 35.7961L30.2262 35.8399L30.1133 35.8767L29.9995 35.9065L29.8838 35.9304L29.7681 35.9473L29.6506 35.9572L29.534 35.9612L29.4164 35.9602L29.2989 35.9523L29.1814 35.9383L29.0657 35.9194L28.95 35.8946L28.8362 35.8648L28.7242 35.8289L28.6131 35.7882L28.5049 35.7424L28.3984 35.6917L28.2948 35.636L28.1939 35.5764L28.0967 35.5117L28.0023 35.4431L27.9126 35.3695L27.8265 35.2919L27.7441 35.2104L27.6664 35.1259L27.5942 35.0364L27.5267 34.9439L27.4646 34.8474L27.4082 34.748L27.4073 34.7519L27.4063 34.7529H27.4045L27.4017 34.7509L27.3989 34.748L27.3962 34.742L27.3925 34.735L27.3888 34.7261L27.3841 34.7151L27.3795 34.7022L27.3749 34.6873L27.3703 34.6704L27.3647 34.6525L27.3591 34.6316L27.3536 34.6097L27.348 34.5849L27.3425 34.559L27.3369 34.5302L27.3314 34.5003L27.3258 34.4675L27.3203 34.4337L27.3147 34.3969L27.3092 34.3581L27.3045 34.3183L27.299 34.2756L27.2944 34.2308L27.2897 34.1841L27.2851 34.1354L27.2814 34.0846L27.2777 34.0309L27.2749 33.9762L27.2712 33.9186L27.2694 33.8589L27.2675 33.7972L27.2657 33.7326L27.2647 33.666V33.5973V33.5267L27.2657 33.4541L27.2666 33.3786L27.2675 33.3567L27.2684 33.3348L27.2703 33.3129L27.2731 33.291L27.2749 33.2692L27.2786 33.2463L27.2823 33.2244L27.286 33.2015L27.2907 33.1787L27.2953 33.1558L27.3008 33.1319L27.3073 33.1091L27.3138 33.0852L27.3203 33.0613L27.3277 33.0375L27.336 33.0136L27.3443 32.9897L27.3527 32.9649L27.3619 32.941L27.3721 32.9161L27.3823 32.8913L27.3934 32.8664L27.4045 32.8406L27.4156 32.8157L27.4286 32.7898L27.4406 32.765L27.4535 32.7391L27.4674 32.7133L27.4813 32.6864L27.4961 32.6606L27.5109 32.6337L27.5267 32.6078L27.5424 32.581L27.559 32.5541L27.5757 32.5263L27.5933 32.4994L27.6109 32.4716L27.6294 32.4448L27.6488 32.4169L27.6673 32.3891L26.988 32.4268L26.3282 32.4607L25.6869 32.4915L25.065 32.5173L24.4625 32.5392L23.8785 32.5581L23.314 32.572L22.768 32.582L22.2414 32.588L21.7343 32.5909L21.2456 32.589L20.7764 32.583L20.3257 32.573L19.8954 32.5591L19.5743 32.5452L19.5326 32.4438L19.4882 32.3373L19.4438 32.2299L19.4003 32.1235L19.3559 32.0171L19.3114 31.9107L19.2679 31.8043L19.2235 31.6979L19.1791 31.5915L19.1347 31.4851L19.1365 31.7208L19.1374 31.9575L19.1384 32.1941L19.1393 32.4298V32.5223L19.0903 32.5193L18.7164 32.4935L18.3619 32.4636L18.026 32.4298L17.7095 32.392L17.4124 32.3503L17.1339 32.3045L16.8747 32.2548L16.6341 32.2001L16.4129 32.1424L16.2112 32.0808L16.0289 32.0151L15.8651 31.9455L15.7198 31.8709L15.5948 31.7934L15.4884 31.7118L15.4005 31.6253L15.332 31.5358L15.283 31.4413L15.2533 31.3439L15.2422 31.2414L15.2496 31.136L15.2774 31.0256L15.3237 30.9123L15.3894 30.7939L15.4051 30.6796L15.4236 30.5513L15.4458 30.4101L15.4708 30.2569L15.4986 30.0928L15.5282 29.9168L15.5606 29.7318L15.5948 29.5369L15.6318 29.334L15.6698 29.1232L15.7096 28.9044L15.7512 28.6807L15.7938 28.4499L15.8382 28.2152L15.8836 27.9756L15.9289 27.7319L15.9752 27.4863L16.0224 27.2377L16.0696 26.9891L16.1649 26.4878L16.2121 26.2382L16.2584 25.9906L16.3056 25.745L16.3509 25.5013L16.3963 25.2617L16.4398 25.027L16.4823 24.7962L16.524 24.5715L16.5638 24.3537L16.6026 24.1429L16.6387 23.94L16.6739 23.7451L16.7063 23.5601L16.7359 23.3841L16.7637 23.22L16.7887 23.0669L16.8099 22.9256L16.8294 22.7973L16.8451 22.683V22.682L16.8442 22.679L16.8423 22.674L16.8405 22.6671L16.8377 22.6581L16.8349 22.6472L16.8312 22.6343L16.8275 22.6203L16.8229 22.6034L16.8183 22.5855L16.8127 22.5666L16.8072 22.5448L16.8007 22.5219L16.7942 22.497L16.7868 22.4712L16.7803 22.4423L16.772 22.4135L16.7646 22.3827L16.7563 22.3498L16.7479 22.316L16.7387 22.2802L16.7304 22.2444L16.7211 22.2056L16.7118 22.1668L16.7017 22.1261L16.6924 22.0833L16.6822 22.0406L16.6721 21.9958L16.6619 21.9501L16.6517 21.9033L16.6415 21.8556L16.6313 21.8069L16.6212 21.7561L16.611 21.7054L16.5999 21.6537L16.5897 21.6L16.5795 21.5463L16.5684 21.4916L16.5582 21.4359L16.548 21.3792L16.3407 21.4041L16.1288 21.4289L15.915 21.4548L15.6994 21.4817L15.481 21.5085L15.2617 21.5364L15.0414 21.5642L14.8202 21.592L14.599 21.6209L14.3779 21.6497L14.1576 21.6786L13.9392 21.7074L13.7217 21.7362L13.5061 21.7641L13.2942 21.7929L13.0841 21.8208L12.8777 21.8486L12.675 21.8765L12.477 21.9033L12.2836 21.9302L12.0957 21.956L11.9125 21.9809L11.7357 22.0057L11.5654 22.0296L11.4025 22.0515L11.2461 22.0734L11.0981 22.0943L10.9583 22.1141L10.8269 22.133L10.7048 22.1499L10.5928 22.1659L10.49 22.1808L10.3975 22.1937L10.3161 22.2046L10.2467 22.2146L10.1883 22.2235L10.1421 22.2305L10.1088 22.2345L10.0884 22.2375L10.081 22.2385L10.0745 22.2265L10.0551 22.1907L10.0227 22.133L9.9792 22.0535L9.9246 21.953L9.85889 21.8327L9.78393 21.6945L9.69879 21.5393L9.60624 21.3673L9.50444 21.1793L9.39616 20.9775L9.28048 20.7627L9.15833 20.5349L9.03061 20.2962L8.89735 20.0466L8.76038 19.7881L8.61971 19.5215L8.47534 19.2471L8.3282 18.9666L8.18012 18.6812L8.02928 18.3918L7.87843 18.0985L7.72758 17.8031L7.57673 17.5067L7.42681 17.2104L7.27874 16.915L7.13251 16.6207L6.99 16.3303L6.85025 16.0429L6.71421 15.7604L6.58372 15.485L6.45786 15.2155L6.33848 14.9549L6.22465 14.7023L6.11915 14.4607L6.02012 14.2299L5.93036 14.0102L5.84984 13.8043L5.77766 13.6134L5.71658 13.4364L5.69529 13.3707L5.67678 13.3061L5.6592 13.2414L5.64347 13.1778L5.62958 13.1141L5.61755 13.0515L5.60737 12.9898L5.59904 12.9282L5.59257 12.8665L5.58701 12.8059L5.58331 12.7462L5.58146 12.6865V12.6278L5.58239 12.5702L5.58516 12.5125L5.58886 12.4548L5.59442 12.3991L5.60182 12.3434L5.61015 12.2877L5.62033 12.234L5.63143 12.1803L5.64347 12.1266L5.65827 12.0749L5.67308 12.0232L5.68974 11.9715L5.70732 11.9218L5.72676 11.872L5.74712 11.8233L5.7684 11.7756L5.79061 11.7278L5.81467 11.6811L5.83966 11.6354L5.86557 11.5906L5.89241 11.5459L5.92018 11.5021L5.94886 11.4603L5.9794 11.4176L6.00994 11.3768L6.04233 11.337L6.07473 11.2972L0.133338 0.967624L0.121307 0.944751L0.109276 0.921878L0.0990962 0.899005L0.0889162 0.876133L0.0805873 0.852265L0.0731837 0.828398L0.0667054 0.80453L0.0602273 0.780663L0.0556001 0.756796L0.0518982 0.732928L0.0481965 0.708066L0.0463456 0.684199L0.0454201 0.660331L0.0444946 0.63547L0.0454201 0.611602L0.0463456 0.587735L0.049122 0.562873L0.0518982 0.539006L0.0556001 0.515138L0.0611528 0.492265L0.0667054 0.468398L0.0731837 0.445525L0.0805873 0.422652L0.0889162 0.399779L0.0972452 0.376906L0.107425 0.355028L0.117605 0.333149L0.129636 0.312265L0.141667 0.291381L0.154623 0.270497L0.168505 0.250608L0.183312 0.231713L0.198119 0.211823L0.214777 0.193923L0.231436 0.176022L0.249019 0.158122L0.266603 0.141215L0.286037 0.125304L0.305471 0.109392L0.326757 0.0944751L0.347117 0.081547L0.368402 0.0696133L0.389687 0.0576796L0.410973 0.0477348L0.433184 0.0387845L0.455394 0.0308287L0.477605 0.0228729L0.499816 0.0169061L0.522027 0.0119337L0.545163 0.00696133L0.567374 0.0039779L0.59051 0.00198895L0.612721 0H0.635857L0.658068 0.000994475L0.681204 0.00198895ZM28.9657 24.7992L28.9481 24.9335L28.9296 25.0747L28.9102 25.2239L28.8898 25.379L28.8686 25.5421L28.8463 25.7112L28.8232 25.8872L28.7991 26.0692L28.7751 26.2561L28.7492 26.4501L28.7233 26.649L28.6964 26.8538L28.6687 27.0636L28.6409 27.2775L28.6122 27.4962L28.5826 27.72L28.553 27.9477L28.5224 28.1794L28.4919 28.4151L28.4604 28.6538L28.429 28.8965L28.3966 29.1421L28.3642 29.3907L28.3318 29.6423L28.2985 29.8959L28.2652 30.1515L28.2309 30.4091L28.1976 30.6686L28.1634 30.9302L28.1291 31.1927L28.094 31.4572L28.0597 31.7218L28.0255 31.9873L28.1041 31.8391L28.1828 31.6909L28.2615 31.5418L28.341 31.3936L28.4197 31.2454L28.4984 31.0962L28.578 30.9481L28.6566 30.7999L28.7353 30.6517L28.8149 30.5025L28.8935 30.3544L28.9731 30.2062L29.0518 30.058L29.1314 29.9098L29.21 29.7607L29.2896 29.6125L29.3683 29.4643L29.4479 29.3161L29.5265 29.167L29.6061 29.0188L29.6848 28.8706L29.7644 28.7224L29.844 28.5743L29.9226 28.4261L30.0022 28.2769L30.0818 28.1287L30.1605 27.9806L30.2401 27.8324L30.3187 27.6842L30.3983 27.535L30.4779 27.3869L30.5566 27.2387L30.6362 27.0905L30.7157 26.9423L30.6704 26.8588L30.6241 26.7762L30.5788 26.6937L30.5325 26.6122L30.4862 26.5296L30.439 26.4481L30.3928 26.3665L30.3446 26.285L30.2974 26.2034L30.2493 26.1219L30.2012 26.0413L30.1531 25.9608L30.104 25.8802L30.055 25.7997L30.0059 25.7191L29.956 25.6396L29.906 25.56L29.856 25.4804L29.806 25.4009L29.7551 25.3213L29.7042 25.2428L29.6533 25.1642L29.6015 25.0856L29.5497 25.0071L29.4979 24.9295L29.4451 24.8509L29.3933 24.7734L29.3405 24.6958L29.2869 24.6182L29.2341 24.5417L29.1804 24.4651L29.1268 24.3885L29.0722 24.3119L29.0185 24.2354L28.9824 24.6729L28.9657 24.7992ZM22.5514 27.1999L22.4376 27.2407L22.3312 27.2964L22.2322 27.367L22.1424 27.4495L22.0637 27.545L21.9952 27.6504L21.9406 27.7657L21.8999 27.891L21.874 28.0233L21.8648 28.1576L21.8731 28.2898L21.8962 28.4171L21.9351 28.5385L21.9869 28.6538L22.0526 28.7592L22.1294 28.8557L22.2173 28.9412L22.3164 29.0148L22.4237 29.0735L22.5394 29.1182L22.6625 29.1461L22.7883 29.156L22.9105 29.1471L23.0299 29.1222L23.1428 29.0804L23.2492 29.0247L23.3482 28.9541L23.438 28.8716L23.5176 28.7761L23.5852 28.6707L23.6398 28.5544L23.6805 28.4301L23.7064 28.2978L23.7157 28.1625L23.7082 28.0313L23.6842 27.903L23.6462 27.7817L23.5944 27.6673L23.5287 27.5609L23.4519 27.4644L23.3631 27.3789L23.265 27.3063L23.1576 27.2476L23.041 27.2039L22.9179 27.176L22.793 27.1661L22.6699 27.174L22.5514 27.1999ZM22.9355 24.2453L22.8226 24.2861L22.7152 24.3428L22.6171 24.4124L22.5274 24.4949L22.4478 24.5904L22.3793 24.6958L22.3247 24.8112L22.284 24.9365L22.2581 25.0687L22.2488 25.204L22.2571 25.3352L22.2803 25.4625L22.3191 25.5849L22.371 25.6992L22.4367 25.8056L22.5135 25.9021L22.6014 25.9876L22.7004 26.0602L22.8078 26.1199L22.9235 26.1636L23.0475 26.1915L23.1724 26.2014L23.2955 26.1935L23.414 26.1676L23.5269 26.1269L23.6333 26.0702L23.7323 26.0006L23.8221 25.917L23.9017 25.8225L23.9692 25.7171L24.0247 25.6008L24.0655 25.4765L24.0914 25.3442L24.0997 25.2099L24.0923 25.0777L24.0692 24.9504L24.0312 24.8281L23.9785 24.7137L23.9137 24.6073L23.836 24.5108L23.748 24.4253L23.649 24.3527L23.5417 24.293L23.4251 24.2493L23.302 24.2214L23.1761 24.2115L23.054 24.2204L22.9355 24.2453Z"/>
  </symbol>
  <symbol id="i-flag" viewBox="0 0 14 17">
    <path d="M13.383 1.317a1 1 0 0 0-1.09.217 3.248 3.248 0 0 1-4.586 0 5.25 5.25 0 0 0-7.414 0A.997.997 0 0 0 0 2.241v13a1 1 0 1 0 2 0v-4.553a3.248 3.248 0 0 1 4.293.26 5.25 5.25 0 0 0 7.414 0 1 1 0 0 0 .293-.707v-8a1 1 0 0 0-.617-.924z" fill="#6BA530"/>
  </symbol>
  <symbol id="i-board" viewBox="0 0 30 30">
    <path d="M15 10.345h-1.5v3.103H15c.828 0 1.5-.694 1.5-1.551s-.672-1.552-1.5-1.552zm0-4.138h-1.5V9.31H15c.828 0 1.5-.694 1.5-1.551s-.672-1.552-1.5-1.552zm-7.085 0L7.353 9.31h1.294l-.562-3.103h-.17z"/>
    <path d="M29.5 20.69H28V0H2v20.69H.5c-.276 0-.5.231-.5.517a.51.51 0 0 0 .5.517h9.279L7.03 29.301a.523.523 0 0 0 .294.666c.259.1.547-.036.644-.304l1.377-3.8h11.308l1.378 3.801a.5.5 0 0 0 .644.303c.259-.1.39-.398.293-.666l-2.748-7.577h9.28a.51.51 0 0 0 .5-.517.509.509 0 0 0-.5-.517zm-17-15a.51.51 0 0 1 .5-.518h2c1.078-.003 2.036.712 2.374 1.771.338 1.06-.021 2.223-.89 2.885.869.66 1.228 1.825.89 2.884-.338 1.06-1.296 1.774-2.374 1.77h-2a.509.509 0 0 1-.5-.516V5.69zm-2.991 8.37l-.674-3.715h-1.67l-.674 3.716a.514.514 0 0 1-.322.412.487.487 0 0 1-.504-.098.528.528 0 0 1-.156-.505l1.5-8.276a.505.505 0 0 1 .491-.422h1c.24 0 .447.178.491.422l1.5 8.276a.528.528 0 0 1-.156.505.487.487 0 0 1-.504.098.514.514 0 0 1-.322-.412zm10.77 10.768H9.72l1.125-3.104h8.308l1.125 3.104zM19.5 11.897V7.759c0-1.429 1.12-2.587 2.5-2.587s2.5 1.158 2.5 2.587a.509.509 0 0 1-.5.517.509.509 0 0 1-.5-.517c0-.857-.672-1.552-1.5-1.552s-1.5.695-1.5 1.552v4.138c0 .857.672 1.551 1.5 1.551s1.5-.694 1.5-1.551c0-.286.224-.518.5-.518s.5.232.5.518c0 1.428-1.12 2.586-2.5 2.586s-2.5-1.158-2.5-2.586zM27 20.69h-1v-1.035h-3v1.035h-1v-1.552c0-.286.224-.517.5-.517h4c.276 0 .5.231.5.517v1.552z"/>
  </symbol>
  <symbol id="i-game" viewBox="0 0 35 20">
    <path d="M9.545 0h15.91c2.531 0 4.96 1.054 6.75 2.929C33.994 4.804 35 7.348 35 10s-1.006 5.196-2.796 7.071C30.414 18.946 27.986 20 25.454 20c-2.831 0-5.36-1.283-7.11-3.333h-1.687C14.907 18.717 12.377 20 9.545 20c-2.531 0-4.96-1.054-6.75-2.929C1.006 15.196 0 12.652 0 10s1.006-5.196 2.796-7.071C4.586 1.054 7.014 0 9.546 0zm-1.59 5v3.333H4.773v3.334h3.182V15h3.181v-3.333h3.182V8.333h-3.182V5H7.955zm15.113 5a2.33 2.33 0 0 0-1.687.732 2.562 2.562 0 0 0-.7 1.768c0 .663.252 1.299.7 1.768a2.333 2.333 0 0 0 1.687.732c.633 0 1.24-.263 1.688-.732a2.562 2.562 0 0 0 .698-1.768 2.56 2.56 0 0 0-.698-1.768A2.333 2.333 0 0 0 23.068 10zm4.773-5c-.633 0-1.24.263-1.688.732a2.562 2.562 0 0 0-.698 1.768c0 .663.251 1.299.699 1.768A2.333 2.333 0 0 0 27.84 10a2.33 2.33 0 0 0 1.687-.732 2.561 2.561 0 0 0 .7-1.768c0-.663-.252-1.299-.7-1.768A2.333 2.333 0 0 0 27.841 5z"/>
  </symbol>
  <symbol id="i-papers" viewBox="0 0 28 28">
    <path d="M23.673 7.211H9.251V4.327h14.422V7.21zM17.904 18.75H9.251v-2.884h8.653v2.884zm5.77-5.769H9.25v-2.884h14.422v2.884zM25.115 0H7.809a2.884 2.884 0 0 0-2.885 2.884v17.307a2.884 2.884 0 0 0 2.885 2.885h17.306A2.885 2.885 0 0 0 28 20.19V2.884A2.885 2.885 0 0 0 25.116 0zM3 5.769H0v20.089c0 .765.056 1.004.597 1.545.541.54.678.597 1.443.597h20.19v-3.001H3.001V5.769z"/>
  </symbol>
</svg>
